<?xml version="1.0" encoding="UTF-8"?>
<!DOCTYPE svg PUBLIC "-//W3C//DTD SVG 1.1//EN" "http://www.w3.org/Graphics/SVG/1.1/DTD/svg11.dtd">
<svg xmlns="http://www.w3.org/2000/svg" version="1.1" width="187px" height="60px" style="shape-rendering:geometricPrecision; text-rendering:geometricPrecision; image-rendering:optimizeQuality; fill-rule:evenodd; clip-rule:evenodd" xmlns:xlink="http://www.w3.org/1999/xlink">
<g><path style="opacity:1" fill="#212121" d="M 30.5,9.5 C 30.8333,10.5 31.5,11.1667 32.5,11.5C 34.2503,12.6594 35.2503,14.326 35.5,16.5C 34.588,18.5952 33.4213,20.5952 32,22.5C 31.6264,20.5087 30.793,18.842 29.5,17.5C 24.6401,10.7599 17.9734,8.09326 9.5,9.5C 9.5,20.1667 9.5,30.8333 9.5,41.5C 12.1667,41.5 14.8333,41.5 17.5,41.5C 20.6305,42.0922 22.9639,41.0922 24.5,38.5C 26.1667,36.8333 27.8333,35.1667 29.5,33.5C 30.4731,35.9479 30.8064,38.6146 30.5,41.5C 25.6829,46.5464 19.6829,48.8797 12.5,48.5C 9.0471,48.4082 6.21377,47.0749 4,44.5C 2.87294,38.2701 2.37294,31.9368 2.5,25.5C 2.52032,19.4223 2.85365,13.4223 3.5,7.5C 4.83333,6.83333 5.83333,5.83333 6.5,4.5C 13.5535,1.6982 20.5535,2.1982 27.5,6C 28.7101,7.0391 29.7101,8.20577 30.5,9.5 Z"/></g>
<g><path style="opacity:1" fill="#85b35c" d="M 99.5,1.5 C 100.492,1.32842 101.158,1.66175 101.5,2.5C 98.0095,5.49025 94.6761,8.65691 91.5,12C 93.1341,12.4935 94.8008,12.6602 96.5,12.5C 95.791,13.404 94.791,13.7373 93.5,13.5C 93.1667,13.5 92.8333,13.5 92.5,13.5C 89.0217,13.8158 85.6883,13.3158 82.5,12C 80.1312,9.42976 78.1312,6.59643 76.5,3.5C 82.7199,2.30747 87.2199,4.6408 90,10.5C 90.4033,4.597 93.5699,1.597 99.5,1.5 Z"/></g>
<g><path style="opacity:0.337" fill="#939393" d="M 6.5,4.5 C 5.83333,5.83333 4.83333,6.83333 3.5,7.5C 3.5,5.5 4.5,4.5 6.5,4.5 Z"/></g>
<g><path style="opacity:0.004" fill="#d1e5ba" d="M 99.5,1.5 C 100.209,0.596028 101.209,0.262695 102.5,0.5C 102.663,2.85684 102.497,5.19018 102,7.5C 101.617,8.05596 101.117,8.38929 100.5,8.5C 100.833,6.5 101.167,4.5 101.5,2.5C 101.158,1.66175 100.492,1.32842 99.5,1.5 Z"/></g>
<g><path style="opacity:0.004" fill="#a9a9a9" d="M 30.5,9.5 C 31.8333,9.5 32.5,10.1667 32.5,11.5C 31.5,11.1667 30.8333,10.5 30.5,9.5 Z"/></g>
<g><path style="opacity:1" fill="#7dc04d" d="M 101.5,2.5 C 101.167,4.5 100.833,6.5 100.5,8.5C 100.167,10.8333 98.8333,12.1667 96.5,12.5C 94.8008,12.6602 93.1341,12.4935 91.5,12C 94.6761,8.65691 98.0095,5.49025 101.5,2.5 Z"/></g>
<g><path style="opacity:0.173" fill="#898889" d="M 92.5,13.5 C 92.8333,13.5 93.1667,13.5 93.5,13.5C 93.5,14.1667 93.5,14.8333 93.5,15.5C 91.1667,15.5 88.8333,15.5 86.5,15.5C 88.5,14.8333 90.5,14.1667 92.5,13.5 Z"/></g>
<g><path style="opacity:0.999" fill="#171717" d="M 54.5,18.5 C 54.3691,19.3764 54.7025,20.0431 55.5,20.5C 57.188,19.4787 58.5213,18.1454 59.5,16.5C 62.8067,15.9492 66.1401,15.6159 69.5,15.5C 72.089,15.461 74.089,16.461 75.5,18.5C 76.3501,20.9062 75.8501,23.2396 74,25.5C 73.6174,24.944 73.1174,24.6107 72.5,24.5C 68.8397,20.894 64.8397,20.5606 60.5,23.5C 58.8958,24.287 58.2291,25.6203 58.5,27.5C 58.6662,33.8421 58.4995,40.1754 58,46.5C 56.3333,47.8333 54.6667,47.8333 53,46.5C 52.5004,39.8417 52.3337,33.175 52.5,26.5C 52.573,24.9731 51.9063,23.9731 50.5,23.5C 45.2883,20.2418 41.1216,21.2418 38,26.5C 37.814,33.4137 37.314,40.2471 36.5,47C 32.0748,47.9558 30.4082,46.1225 31.5,41.5C 31.5,37.8333 31.5,34.1667 31.5,30.5C 31.5,28.5 31.5,26.5 31.5,24.5C 32.1667,24.5 32.5,24.1667 32.5,23.5C 34.4707,21.1918 36.4707,18.8585 38.5,16.5C 44.3433,13.5259 49.6766,14.1926 54.5,18.5 Z"/></g>
<g><path style="opacity:0.906" fill="#5f5f5f" d="M 69.5,15.5 C 66.1401,15.6159 62.8067,15.9492 59.5,16.5C 62.7076,14.4686 66.041,14.1353 69.5,15.5 Z"/></g>
<g><path style="opacity:1" fill="#1b1b1b" d="M 86.5,15.5 C 88.8333,15.5 91.1667,15.5 93.5,15.5C 97.2219,15.8611 100.222,17.5278 102.5,20.5C 102.008,22.8185 101.008,24.8185 99.5,26.5C 95.4574,21.5132 90.4574,20.3466 84.5,23C 83.2899,24.0391 82.2899,25.2058 81.5,26.5C 79.9735,27.4919 79.3068,28.9919 79.5,31C 79.5143,32.3847 79.8476,33.5514 80.5,34.5C 86.4086,43.2289 92.7419,43.5623 99.5,35.5C 100.167,36.1667 100.833,36.8333 101.5,37.5C 101.328,38.4916 101.662,39.1583 102.5,39.5C 103.957,41.6282 104.957,43.9616 105.5,46.5C 104.167,46.5 102.833,46.5 101.5,46.5C 100.778,46.0825 100.278,45.4158 100,44.5C 99.0975,45.7014 97.9308,46.5348 96.5,47C 92.5,47.6667 88.5,47.6667 84.5,47C 82.9336,46.3918 81.6002,45.5585 80.5,44.5C 79.5,42.8333 78.1667,41.5 76.5,40.5C 76.2041,38.597 75.5375,36.9303 74.5,35.5C 73.1667,32.8333 73.1667,30.1667 74.5,27.5C 75.5804,25.0038 76.9138,22.6705 78.5,20.5C 80.1927,17.3182 82.8593,15.6516 86.5,15.5 Z"/></g>
<g><path style="opacity:1" fill="#1c1c1c" d="M 132.5,26.5 C 132.809,30.7047 132.143,34.7047 130.5,38.5C 130.5,38.8333 130.5,39.1667 130.5,39.5C 129.662,39.8417 129.328,40.5084 129.5,41.5C 128.833,41.5 128.5,41.8333 128.5,42.5C 127.167,43.1667 126.167,44.1667 125.5,45.5C 122.737,46.9873 119.737,47.6539 116.5,47.5C 113.473,47.7135 110.807,47.0468 108.5,45.5C 106.833,43.1667 104.833,41.1667 102.5,39.5C 101.662,39.1583 101.328,38.4916 101.5,37.5C 101.737,36.209 101.404,35.209 100.5,34.5C 100.5,32.5 100.5,30.5 100.5,28.5C 101.895,25.3786 103.562,22.3786 105.5,19.5C 112.438,13.3276 119.772,12.9943 127.5,18.5C 130.19,20.5506 131.857,23.2173 132.5,26.5 Z M 126.5,27.5 C 126.632,30.5701 126.299,33.5701 125.5,36.5C 119.747,43.1261 113.914,43.1261 108,36.5C 105.836,24.3283 110.669,19.8283 122.5,23C 124.07,24.3968 125.404,25.8968 126.5,27.5 Z"/></g>
<g><path style="opacity:0.584" fill="#8b8b8b" d="M 59.5,16.5 C 58.5213,18.1454 57.188,19.4787 55.5,20.5C 54.7025,20.0431 54.3691,19.3764 54.5,18.5C 56.1667,17.8333 57.8333,17.1667 59.5,16.5 Z"/></g>
<g><path style="opacity:0.286" fill="#959595" d="M 75.5,18.5 C 76.5,19.1667 77.5,19.8333 78.5,20.5C 76.9138,22.6705 75.5804,25.0038 74.5,27.5C 72.9519,27.1788 72.2852,26.1788 72.5,24.5C 73.1174,24.6107 73.6174,24.944 74,25.5C 75.8501,23.2396 76.3501,20.9062 75.5,18.5 Z"/></g>
<g><path style="opacity:0.192" fill="#959595" d="M 35.5,16.5 C 36.5,16.5 37.5,16.5 38.5,16.5C 36.4707,18.8585 34.4707,21.1918 32.5,23.5C 31.8333,23.5 31.5,23.8333 31.5,24.5C 30.3882,22.4006 29.7215,20.0673 29.5,17.5C 30.793,18.842 31.6264,20.5087 32,22.5C 33.4213,20.5952 34.588,18.5952 35.5,16.5 Z"/></g>
<g><path style="opacity:0.349" fill="#929292" d="M 105.5,19.5 C 103.562,22.3786 101.895,25.3786 100.5,28.5C 99.6618,28.1583 99.3284,27.4916 99.5,26.5C 101.008,24.8185 102.008,22.8185 102.5,20.5C 103.609,20.4431 104.609,20.1098 105.5,19.5 Z"/></g>
<g><path style="opacity:0.184" fill="#aeaeae" d="M 50.5,23.5 C 51.9063,23.9731 52.573,24.9731 52.5,26.5C 51.0937,26.0269 50.427,25.0269 50.5,23.5 Z"/></g>
<g><path style="opacity:0.282" fill="#a0a0a0" d="M 60.5,23.5 C 60.3404,25.153 59.6737,26.4863 58.5,27.5C 58.2291,25.6203 58.8958,24.287 60.5,23.5 Z"/></g>
<g><path style="opacity:0.424" fill="#909090" d="M 132.5,26.5 C 132.991,31.7925 133.325,37.1259 133.5,42.5C 133.713,45.5267 133.047,48.1934 131.5,50.5C 132.644,46.3522 132.644,42.3522 131.5,38.5C 131.167,38.5 130.833,38.5 130.5,38.5C 132.143,34.7047 132.809,30.7047 132.5,26.5 Z"/></g>
<g><path style="opacity:0.212" fill="#858585" d="M 81.5,26.5 C 80.7347,29.0961 80.4013,31.7628 80.5,34.5C 79.8476,33.5514 79.5143,32.3847 79.5,31C 79.3068,28.9919 79.9735,27.4919 81.5,26.5 Z"/></g>
<g><path style="opacity:0.184" fill="#828282" d="M 126.5,27.5 C 127.634,29.9664 127.801,32.633 127,35.5C 126.617,36.056 126.117,36.3893 125.5,36.5C 126.299,33.5701 126.632,30.5701 126.5,27.5 Z"/></g>
<g><path style="opacity:0.354" fill="#7d7d7d" d="M 31.5,30.5 C 31.5,34.1667 31.5,37.8333 31.5,41.5C 31.1667,41.5 30.8333,41.5 30.5,41.5C 30.8064,38.6146 30.4731,35.9479 29.5,33.5C 29.2852,31.8212 29.9519,30.8212 31.5,30.5 Z"/></g>
<g><path style="opacity:0.255" fill="#ababab" d="M 99.5,35.5 C 99.5,34.8333 99.8333,34.5 100.5,34.5C 101.404,35.209 101.737,36.209 101.5,37.5C 100.833,36.8333 100.167,36.1667 99.5,35.5 Z"/></g>
<g><path style="opacity:0.762" fill="#595959" d="M 74.5,35.5 C 75.5375,36.9303 76.2041,38.597 76.5,40.5C 75.8826,40.3893 75.3826,40.056 75,39.5C 74.5034,41.8098 74.3367,44.1432 74.5,46.5C 73.1667,42.8333 73.1667,39.1667 74.5,35.5 Z"/></g>
<g><path style="opacity:0.239" fill="#b1b1b1" d="M 130.5,39.5 C 130.833,39.5 131.167,39.5 131.5,39.5C 131.167,40.5 130.5,41.1667 129.5,41.5C 129.328,40.5084 129.662,39.8417 130.5,39.5 Z"/></g>
<g><path style="opacity:1" fill="#181818" d="M 131.5,38.5 C 132.644,42.3522 132.644,46.3522 131.5,50.5C 129.472,54.5278 126.472,57.5278 122.5,59.5C 118.167,59.5 113.833,59.5 109.5,59.5C 108.306,58.7281 107.306,57.7281 106.5,56.5C 106.167,55.5 105.5,54.8333 104.5,54.5C 104.167,53.5 103.5,52.8333 102.5,52.5C 101.167,51.1667 101.167,49.8333 102.5,48.5C 104.167,48.5 105.833,48.5 107.5,48.5C 108.167,49.8333 109.167,50.8333 110.5,51.5C 111.924,53.7145 114.091,54.7145 117,54.5C 119.008,54.6932 120.508,54.0265 121.5,52.5C 121.842,51.6618 122.508,51.3284 123.5,51.5C 124.906,51.0269 125.573,50.0269 125.5,48.5C 125.557,47.391 125.89,46.391 126.5,45.5C 127.833,44.8333 128.833,43.8333 129.5,42.5C 129.5,42.1667 129.5,41.8333 129.5,41.5C 130.5,41.1667 131.167,40.5 131.5,39.5C 131.5,39.1667 131.5,38.8333 131.5,38.5 Z"/></g>
<g><path style="opacity:0.969" fill="#565656" d="M 24.5,38.5 C 22.9639,41.0922 20.6305,42.0922 17.5,41.5C 19.8428,40.6557 22.1761,39.6557 24.5,38.5 Z"/></g>
<g><path style="opacity:0.999" fill="#171717" d="M 76.5,40.5 C 76.7376,42.4044 77.7376,43.7377 79.5,44.5C 79.5,45.5 79.5,46.5 79.5,47.5C 77.5853,47.7845 75.9187,47.4511 74.5,46.5C 74.3367,44.1432 74.5034,41.8098 75,39.5C 75.3826,40.056 75.8826,40.3893 76.5,40.5 Z"/></g>
<g><path style="opacity:0.329" fill="#929292" d="M 102.5,39.5 C 104.833,41.1667 106.833,43.1667 108.5,45.5C 107.391,45.5569 106.391,45.8902 105.5,46.5C 104.957,43.9616 103.957,41.6282 102.5,39.5 Z"/></g>
<g><path style="opacity:0.376" fill="#898989" d="M 76.5,40.5 C 78.1667,41.5 79.5,42.8333 80.5,44.5C 80.1667,44.5 79.8333,44.5 79.5,44.5C 77.7376,43.7377 76.7376,42.4044 76.5,40.5 Z"/></g>
<g><path style="opacity:0.194" fill="#ababab" d="M 128.5,42.5 C 128.833,42.5 129.167,42.5 129.5,42.5C 128.833,43.8333 127.833,44.8333 126.5,45.5C 126.167,45.5 125.833,45.5 125.5,45.5C 126.167,44.1667 127.167,43.1667 128.5,42.5 Z"/></g>
<g><path style="opacity:0.451" fill="#6f6f6f" d="M 101.5,46.5 C 102.833,46.5 104.167,46.5 105.5,46.5C 106.167,47.1667 106.833,47.8333 107.5,48.5C 105.833,48.5 104.167,48.5 102.5,48.5C 102.167,47.8333 101.833,47.1667 101.5,46.5 Z"/></g>
<g><path style="opacity:0.729" fill="#7b7b7b" d="M 125.5,48.5 C 125.573,50.0269 124.906,51.0269 123.5,51.5C 123.427,49.9731 124.094,48.9731 125.5,48.5 Z"/></g>
<g><path style="opacity:0.288" fill="#949494" d="M 20.5,50.5 C 21.7479,51.3339 22.4146,52.6672 22.5,54.5C 22.1667,55.8333 21.8333,57.1667 21.5,58.5C 20.52,55.9135 20.1866,53.2469 20.5,50.5 Z"/></g>
<g><path style="opacity:0.065" fill="#d0d0d0" d="M 67.5,51.5 C 67.56,50.9569 67.8933,50.6236 68.5,50.5C 69.8003,53.3092 69.8003,55.9759 68.5,58.5C 68.8016,55.9407 68.4682,53.6074 67.5,51.5 Z"/></g>
<g><path style="opacity:0.467" fill="#6e6e6e" d="M 40.5,52.5 C 45.1679,51.8394 47.1679,53.8394 46.5,58.5C 45.5,58.5 44.5,58.5 43.5,58.5C 43.4427,53.3183 42.776,53.3183 41.5,58.5C 40.5344,56.604 40.2011,54.604 40.5,52.5 Z"/></g>
<g><path style="opacity:0.365" fill="#808080" d="M 50.5,52.5 C 54.9083,52.062 56.5749,54.062 55.5,58.5C 53.8333,58.5 52.1667,58.5 50.5,58.5C 51.3799,56.3888 51.3799,54.3888 50.5,52.5 Z"/></g>
<g><path style="opacity:0.218" fill="#818181" d="M 70.5,50.5 C 71.7479,51.3339 72.4146,52.6672 72.5,54.5C 72.1667,55.8333 71.8333,57.1667 71.5,58.5C 70.52,55.9135 70.1866,53.2469 70.5,50.5 Z"/></g>
<g><path style="opacity:0.773" fill="#6b6b6b" d="M 88.5,52.5 C 91.8957,52.6329 92.2291,53.6329 89.5,55.5C 90.1667,56.1667 90.8333,56.8333 91.5,57.5C 90.3493,58.731 89.1827,58.731 88,57.5C 87.3603,55.735 87.5269,54.0683 88.5,52.5 Z"/></g>
<g><path style="opacity:0.004" fill="#bcbcbc" d="M 102.5,52.5 C 103.5,52.8333 104.167,53.5 104.5,54.5C 103.167,54.5 102.5,53.8333 102.5,52.5 Z"/></g>
<g><path style="opacity:0.641" fill="#5d5d5d" d="M 110.5,51.5 C 114.002,53.6252 117.669,53.9585 121.5,52.5C 120.508,54.0265 119.008,54.6932 117,54.5C 114.091,54.7145 111.924,53.7145 110.5,51.5 Z"/></g>
<g><path style="opacity:0.733" fill="#676767" d="M 4.5,50.5 C 7.13594,50.4912 8.46928,51.8245 8.5,54.5C 8.59702,57.9114 6.93036,59.2447 3.5,58.5C 3.27863,55.7212 3.61197,53.0545 4.5,50.5 Z"/></g>
<g><path style="opacity:0.194" fill="#8a8a8a" d="M 16.5,50.5 C 17.7479,51.3339 18.4146,52.6672 18.5,54.5C 18.1667,55.8333 17.8333,57.1667 17.5,58.5C 16.52,55.9135 16.1866,53.2469 16.5,50.5 Z"/></g>
<g><path style="opacity:0.506" fill="#666666" d="M 67.5,51.5 C 68.4682,53.6074 68.8016,55.9407 68.5,58.5C 64.3228,59.1584 62.8228,57.4918 64,53.5C 65.3024,52.9152 66.469,52.2485 67.5,51.5 Z M 65.5,54.5 C 67.337,54.6395 67.6704,55.3061 66.5,56.5C 65.7025,56.0431 65.3691,55.3764 65.5,54.5 Z"/></g>
<g><path style="opacity:0.506" fill="#696969" d="M 75.5,52.5 C 76.8221,52.33 77.9887,52.6634 79,53.5C 79.0343,55.1796 79.201,56.6796 79.5,58C 77.8659,58.4935 76.1992,58.6602 74.5,58.5C 74.3253,56.3792 74.6586,54.3792 75.5,52.5 Z"/></g>
<g><path style="opacity:0.361" fill="#6e6e6e" d="M 93.5,52.5 C 94.8333,52.5 96.1667,52.5 97.5,52.5C 97.5,54.5 97.5,56.5 97.5,58.5C 96.1667,58.5 94.8333,58.5 93.5,58.5C 93.5,56.5 93.5,54.5 93.5,52.5 Z"/></g>
<g><path style="opacity:0.722" fill="#636363" d="M 27.5,50.5 C 29.369,52.6353 30.0356,55.3019 29.5,58.5C 26.7118,58.9231 24.7118,57.9231 23.5,55.5C 24.9527,53.8152 26.286,52.1486 27.5,50.5 Z M 25.5,54.5 C 27.337,54.6395 27.6704,55.3061 26.5,56.5C 25.7025,56.0431 25.3691,55.3764 25.5,54.5 Z"/></g>
<g><path style="opacity:0.008" fill="#a6a6a6" d="M 104.5,54.5 C 105.5,54.8333 106.167,55.5 106.5,56.5C 105.167,56.5 104.5,55.8333 104.5,54.5 Z"/></g>
<g><path style="opacity:0.067" fill="#2c2c2c" d="M 15.5,57.5 C 14.5084,57.6716 13.8417,57.3382 13.5,56.5C 13.238,55.0222 13.5713,53.6888 14.5,52.5C 15.4519,54.0453 15.7852,55.712 15.5,57.5 Z"/></g>
<g><path style="opacity:0.494" fill="#818181" d="M 34.5,52.5 C 38.9083,52.062 40.5749,54.062 39.5,58.5C 37.8333,58.5 36.1667,58.5 34.5,58.5C 34.5,56.5 34.5,54.5 34.5,52.5 Z"/></g>
<g><path style="opacity:0.584" fill="#777777" d="M 57.5,52.5 C 59.045,53.2297 59.8784,54.563 60,56.5C 60.2189,55.062 60.7189,53.7287 61.5,52.5C 62.4656,54.396 62.7989,56.396 62.5,58.5C 60.8333,58.5 59.1667,58.5 57.5,58.5C 57.5,56.5 57.5,54.5 57.5,52.5 Z"/></g>
<g><path style="opacity:0.051" fill="#737373" d="M 80.5,52.5 C 85.5,51.5 87.5,53.5 86.5,58.5C 84.5,58.5 82.5,58.5 80.5,58.5C 80.5,56.5 80.5,54.5 80.5,52.5 Z"/></g>
<g><path style="opacity:0.427" fill="#727272" d="M 13.5,56.5 C 13.8417,57.3382 14.5084,57.6716 15.5,57.5C 14.0813,58.4511 12.4147,58.7845 10.5,58.5C 10.2011,56.396 10.5344,54.396 11.5,52.5C 12.1719,53.9492 12.8386,55.2825 13.5,56.5 Z"/></g>
</svg>
